<?xml version="1.0" encoding="UTF-8"?>
<svg xmlns="http://www.w3.org/2000/svg" xmlns:xlink="http://www.w3.org/1999/xlink" viewBox="0 0 1554.26 350">
  <defs>
    <style>
      .cls-1 {
        clip-path: url(#clippath);
      }

      .cls-2 {
        fill: none;
      }

      .cls-2, .cls-3, .cls-4, .cls-5, .cls-6, .cls-7, .cls-8, .cls-9, .cls-10, .cls-11 {
        stroke-width: 0px;
      }

      .cls-3 {
        fill: #1dd3f3;
      }

      .cls-4 {
        fill: #c040f5;
      }

      .cls-5 {
        fill: #00e3ae;
      }

      .cls-6 {
        fill: #1a1a1a;
      }

      .cls-7 {
        fill: #534ad7;
      }

      .cls-12, .cls-8, .cls-9, .cls-10, .cls-11 {
        isolation: isolate;
      }

      .cls-8 {
        fill: url(#linear-gradient);
      }

      .cls-8, .cls-9, .cls-10, .cls-11 {
        mix-blend-mode: multiply;
      }

      .cls-9 {
        fill: url(#linear-gradient-3);
      }

      .cls-10 {
        fill: url(#linear-gradient-4);
      }

      .cls-11 {
        fill: url(#linear-gradient-2);
      }
    </style>
    <clipPath id="clippath">
      <rect class="cls-2" x="39.59" y="40.19" width="269.61" height="269.61"/>
    </clipPath>
    <linearGradient id="linear-gradient" x1="-113.3" y1="81.04" x2="5.47" y2="13.66" gradientTransform="translate(182.35 282.85) scale(1 -1)" gradientUnits="userSpaceOnUse">
      <stop offset=".61" stop-color="#fff"/>
      <stop offset=".64" stop-color="#dae2e4"/>
      <stop offset=".7" stop-color="#a1b5bb"/>
      <stop offset=".75" stop-color="#708f97"/>
      <stop offset=".81" stop-color="#476f7a"/>
      <stop offset=".86" stop-color="#285764"/>
      <stop offset=".91" stop-color="#124654"/>
      <stop offset=".96" stop-color="#043b4a"/>
      <stop offset="1" stop-color="#003847"/>
    </linearGradient>
    <linearGradient id="linear-gradient-2" x1="18.85" y1="2.52" x2="86.23" y2="121.28" gradientTransform="translate(182.35 282.85) scale(1 -1)" gradientUnits="userSpaceOnUse">
      <stop offset=".61" stop-color="#fff"/>
      <stop offset=".66" stop-color="#d3d3d3"/>
      <stop offset=".72" stop-color="#a2a2a2"/>
      <stop offset=".78" stop-color="#7a7a7a"/>
      <stop offset=".84" stop-color="#5b5b5b"/>
      <stop offset=".9" stop-color="#454545"/>
      <stop offset=".95" stop-color="#373737"/>
      <stop offset="1" stop-color="#333"/>
    </linearGradient>
    <linearGradient id="linear-gradient-3" x1="97.37" y1="134.66" x2="-21.38" y2="202.04" xlink:href="#linear-gradient-2"/>
    <linearGradient id="linear-gradient-4" x1="-34.78" y1="213.18" x2="-102.15" y2="94.43" gradientTransform="translate(182.35 282.85) scale(1 -1)" gradientUnits="userSpaceOnUse">
      <stop offset=".61" stop-color="#fff"/>
      <stop offset=".69" stop-color="#d0d0d0"/>
      <stop offset=".84" stop-color="#7c7c7c"/>
      <stop offset=".95" stop-color="#474747"/>
      <stop offset="1" stop-color="#333"/>
    </linearGradient>
  </defs>
  <g class="cls-12">
    <g id="Layer_1" data-name="Layer 1">
      <g>
        <g>
          <path class="cls-6" d="M389.2,176.13c0-45.77,28.5-80.74,74.05-80.74,38,0,60.45,22.67,63.69,52.03h-31.09c-2.81-15.54-14.46-25.69-32.6-25.69-28.5,0-42.1,23.75-42.1,54.4s16.41,54.19,42.31,54.19c18.35,0,31.3-11.01,33.25-27.2h30.66c-.86,13.6-6.69,26.77-17.05,36.48-10.58,9.93-25.47,16.41-46.85,16.41-43.39,0-74.26-33.46-74.26-79.88h-.01Z"/>
          <path class="cls-6" d="M605.29,240.46h-.43c-5.61,8.42-13.6,14.9-32.6,14.9-22.67,0-38.64-11.87-38.64-33.89,0-24.39,19.86-32.17,44.47-35.62,18.35-2.59,26.77-4.1,26.77-12.52s-6.26-13.17-18.57-13.17c-13.82,0-20.51,4.96-21.37,15.54h-26.12c.86-19.43,15.33-36.48,47.71-36.48s46.63,14.9,46.63,40.8v56.34c0,8.42,1.3,13.38,3.89,15.33v1.08h-28.28c-1.73-2.16-2.81-7.34-3.45-12.31h-.01ZM605.51,213.69v-16.62c-5.18,3.02-13.17,4.75-20.51,6.48-15.33,3.45-22.88,6.91-22.88,17.27s6.91,14.03,17.27,14.03c16.84,0,26.12-10.36,26.12-21.16Z"/>
          <path class="cls-6" d="M649.98,98.41h29.36v154.36h-29.36V98.41h0Z"/>
          <path class="cls-6" d="M697.04,98.41h29.36v154.36h-29.36V98.41h0Z"/>
          <path class="cls-6" d="M738.27,197.28c0-32.81,22.24-58.29,54.62-58.29,35.62,0,54.62,27.2,54.62,66.71h-80.31c2.16,17.05,11.66,27.63,28.28,27.63,11.44,0,18.13-5.18,21.37-13.6h28.93c-4.1,19.65-21.59,36.27-50.08,36.27-36.7,0-57.42-25.69-57.42-58.72h-.01ZM767.63,185.41h49.22c-.86-14.03-10.15-23.75-23.53-23.75-15.54,0-23.1,9.28-25.69,23.75Z"/>
          <path class="cls-6" d="M887.22,159.72h.65c6.69-12.52,14.25-19,27.2-19,3.24,0,5.18.22,6.91.86v25.69h-.65c-19.21-1.94-33.03,8.2-33.03,31.52v53.97h-29.36v-110.75h28.28v17.7h0Z"/>
        </g>
        <g>
          <path class="cls-4" d="M924.4,229.45h14.46v23.31h-14.46v-23.31Z"/>
          <path class="cls-4" d="M968.44,98.63h52.03c22.02,0,39.14,6.44,51.38,19.32,12.23,12.88,18.35,31.92,18.35,57.1s-6.51,44.98-19.54,58.07c-13.03,13.1-31.19,19.64-54.51,19.64h-47.71V98.63ZM1076.37,175.48c0-21.01-4.61-37.13-13.82-48.36-9.21-11.23-23.24-16.84-42.1-16.84h-38.64v130.82h34.76c20.15,0,35.15-5.72,45.01-17.16s14.79-27.59,14.79-48.46Z"/>
          <path class="cls-4" d="M1115.23,98.63h12.95v20.94h-12.95s0-20.94,0-20.94ZM1115.45,141.81h12.52v110.96h-12.52v-110.96Z"/>
          <path class="cls-4" d="M1239.57,247.37v-19.64c-4.18,7.34-9.57,13.03-16.19,17.05-6.62,4.03-14.54,6.04-23.75,6.04-10.36,0-19.07-2.41-26.12-7.23-7.05-4.82-12.41-11.47-16.08-19.97-3.67-8.49-5.5-18.13-5.5-28.93,0-11.37,2.01-21.26,6.04-29.68,4.03-8.42,9.79-14.97,17.27-19.64,7.48-4.67,16.33-7.02,26.55-7.02,7.91,0,15.11,1.66,21.59,4.96,6.48,3.31,11.87,8.71,16.19,16.19v-17.7h12.52v100.38c0,11.66-1.44,21.59-4.32,29.79-2.88,8.2-7.81,14.43-14.79,18.67s-16.59,6.37-28.82,6.37c-14.25,0-25.4-2.59-33.46-7.77-8.06-5.18-12.74-13.31-14.03-24.39h12.3c1.58,7.48,5.11,12.99,10.58,16.52,5.47,3.52,13.67,5.29,24.61,5.29,12.81,0,21.91-3.24,27.31-9.71,5.4-6.48,8.09-16.34,8.09-29.58h.01ZM1230.94,160.37c-5.9-7.63-15.04-11.44-27.42-11.44-11.37,0-20.58,3.78-27.63,11.33-7.05,7.56-10.58,19.03-10.58,34.43s3.49,26.98,10.47,34.32,15.58,11.01,25.8,11.01c12.52,0,22.02-3.89,28.5-11.66s9.71-17.7,9.71-29.79v-7.34c0-12.95-2.95-23.24-8.85-30.87h0Z"/>
          <path class="cls-4" d="M1280.16,98.63h12.95v20.94h-12.95s0-20.94,0-20.94ZM1280.37,141.81h12.52v110.96h-12.52v-110.96Z"/>
          <path class="cls-4" d="M1327.65,219.09v-67.14h-17.27v-10.15h17.27v-30.65h12.52v30.65h33.03v10.15h-33.03v70.38c0,7.05,1.47,12.52,4.42,16.41s7.52,5.83,13.71,5.83c3.02,0,5.75-.25,8.2-.76,2.45-.5,4.75-1.19,6.91-2.05l2.38,9.93c-2.74,1.01-5.65,1.83-8.74,2.48-3.1.65-6.58.97-10.47.97-11.08,0-18.67-3.16-22.77-9.5-4.1-6.33-6.15-15.18-6.15-26.55h0Z"/>
          <path class="cls-4" d="M1385.28,221.9c0-9.21,2.38-16.44,7.12-21.7,4.75-5.25,11.33-9.03,19.75-11.33s18.1-3.67,29.04-4.1l22.23-.86v-4.75c0-11.08-2.27-18.96-6.8-23.64s-12.13-7.02-22.77-7.02c-9.64,0-16.95,1.62-21.91,4.86-4.97,3.24-8.24,8.02-9.82,14.36l-11.44-1.3c2.01-9.64,6.65-16.73,13.92-21.26,7.27-4.53,17.16-6.8,29.68-6.8,14.97,0,25.65,3.45,32.06,10.36,6.4,6.91,9.61,17.2,9.61,30.87v73.18h-12.31v-17.49c-4.18,5.9-9.54,10.72-16.08,14.46-6.55,3.74-14.43,5.61-23.64,5.61-11.8,0-21.19-2.84-28.17-8.53-6.98-5.68-10.47-13.99-10.47-24.93h0ZM1398.23,221.46c0,7.34,2.23,13.06,6.69,17.16s11.3,6.15,20.51,6.15c10.79,0,19.82-2.81,27.09-8.42s10.9-13.67,10.9-24.18v-18.78l-21.16.86c-11.08.43-19.86,1.66-26.34,3.67-6.48,2.02-11.05,4.96-13.71,8.85-2.67,3.89-3.99,8.78-3.99,14.68h.01Z"/>
          <path class="cls-4" d="M1503.58,98.63h12.52v154.13h-12.52V98.63Z"/>
        </g>
      </g>
      <g class="cls-1">
        <g>
          <path class="cls-4" d="M151.02,309.81h46.45c.93-28.31,12.16-56.34,33.77-77.95,20.54-20.54,46.86-31.7,73.73-33.56-28.17-.73-55.08-8.82-78.57-23.3-10.42,6.42-20.17,14.08-29.04,22.95-29.88,29.88-46.33,69.6-46.33,111.85h-.01Z"/>
          <path class="cls-7" d="M309.2,198.37v-46.45c-28.31-.93-56.34-12.16-77.95-33.77-20.54-20.54-31.7-46.86-33.56-73.73-.73,28.18-8.81,55.09-23.3,78.58,6.42,10.42,14.08,20.17,22.95,29.04,29.88,29.88,69.6,46.33,111.85,46.33h.01Z"/>
          <path class="cls-3" d="M197.77,40.19h-46.45c-.93,28.31-12.16,56.34-33.77,77.95-20.54,20.54-46.86,31.7-73.73,33.56,28.17.74,55.08,8.82,78.58,23.3,10.42-6.42,20.18-14.08,29.04-22.95,29.88-29.88,46.33-69.6,46.33-111.85h0Z"/>
          <path class="cls-5" d="M39.59,151.63v46.45c28.31.93,56.34,12.16,77.95,33.77,20.54,20.54,31.7,46.86,33.56,73.73.73-28.17,8.82-55.08,23.3-78.57-6.42-10.42-14.08-20.18-22.95-29.05-29.89-29.88-69.61-46.34-111.86-46.33Z"/>
          <path class="cls-8" d="M39.59,151.63v46.45c28.31.93,56.34,12.16,77.95,33.77,20.54,20.54,31.7,46.86,33.56,73.73.73-28.17,8.82-55.08,23.3-78.57-6.42-10.42-14.08-20.18-22.95-29.05-29.89-29.88-69.61-46.34-111.86-46.33Z"/>
          <path class="cls-11" d="M151.02,309.81h46.45c.93-28.31,12.16-56.34,33.77-77.95,20.54-20.54,46.86-31.7,73.73-33.56-28.17-.73-55.08-8.82-78.57-23.3-10.42,6.42-20.17,14.08-29.04,22.95-29.88,29.88-46.33,69.6-46.33,111.85h-.01Z"/>
          <path class="cls-9" d="M309.2,198.37v-46.45c-28.31-.93-56.34-12.16-77.95-33.77-20.54-20.54-31.7-46.86-33.56-73.73-.73,28.18-8.81,55.09-23.3,78.58,6.42,10.42,14.08,20.17,22.95,29.04,29.88,29.88,69.6,46.33,111.85,46.33h.01Z"/>
          <path class="cls-10" d="M197.77,40.19h-46.45c-.93,28.31-12.16,56.34-33.77,77.95-20.54,20.54-46.86,31.7-73.73,33.56,28.17.74,55.08,8.82,78.58,23.3,10.42-6.42,20.18-14.08,29.04-22.95,29.88-29.88,46.33-69.6,46.33-111.85h0Z"/>
        </g>
      </g>
    </g>
  </g>
</svg>